<svg xmlns="http://www.w3.org/2000/svg" xmlns:xlink="http://www.w3.org/1999/xlink" width="110.075" height="35.998" viewBox="0 0 110.075 35.998">
  <defs>
    <clipPath id="clip-path">
      <rect id="Rectangle_2" data-name="Rectangle 2" width="110.075" height="35.998" transform="translate(45.34 35.51)" fill="none"/>
    </clipPath>
  </defs>
  <g id="Materiais_Sofya_Logo_01" transform="translate(-45.34 -35.51)" clip-path="url(#clip-path)">
    <path id="Path_1" data-name="Path 1" d="M62.9,72.272l-1.744-2.259c4.514-3.484,10.4-9.631,9.547-12.54-1.126-1.724-6-.373-9.583.618-4.57,1.26-8.89,2.449-9.952-.761-.721-2.188.234-5.124,2.838-8.719,2.164-2.988,6.361-7.411,8.5-7.411v2.854a.6.6,0,0,0,.151,0c-1.062.309-5.691,4.55-7.863,8.668-.852,1.613-1.189,2.941-.916,3.733.654.519,4.451-.547,6.484-1.11,5.065-1.407,10.8-3,12.9.856l.087.2c2.1,5.814-8.323,14.244-10.451,15.873" transform="translate(-3.376 -3.435)" fill="#851c55"/>
    <path id="Path_2" data-name="Path 2" d="M75.685,39.552a4.042,4.042,0,1,1-4.042-4.042,4.042,4.042,0,0,1,4.042,4.042" transform="translate(-13.438)" fill="#ef3e23"/>
    <path id="Path_3" data-name="Path 3" d="M53.415,75.219a4.042,4.042,0,1,1-4.042-4.039,4.042,4.042,0,0,1,4.042,4.039" transform="translate(0.006 -21.533)" fill="#ef3e23"/>
    <path id="Path_4" data-name="Path 4" d="M101.685,74.332a4.042,4.042,0,1,1-4.042-4.042,4.042,4.042,0,0,1,4.042,4.042" transform="translate(-29.133 -20.996)" fill="#ef3e23"/>
    <path id="Path_5" data-name="Path 5" d="M77.407,110.023a4.031,4.031,0,1,0,0,.016" transform="translate(-14.482 -42.553)" fill="#ef3e23"/>
    <path id="Path_6" data-name="Path 6" d="M135.975,73.277V71.4a.583.583,0,0,1,.642-.626H143.7c1.415,0,1.958-.309,1.958-1.213s-.4-1.133-1.752-1.288l-3.963-.436c-3.218-.361-4.272-1.585-4.272-4.276,0-2.806,1.649-4.094,5.176-4.094h6.9a.587.587,0,0,1,.646.646v1.863a.587.587,0,0,1-.646.646h-6.829c-1.284,0-1.879.281-1.879,1.26,0,.848.361,1.106,1.546,1.237l3.888.436c3.607.44,4.609,1.752,4.609,4.36,0,2.909-1.621,4.019-5.406,4.019h-7.059a.583.583,0,0,1-.642-.654Z" transform="translate(-54.53 -14.459)" fill="#3c1224"/>
    <path id="Path_7" data-name="Path 7" d="M174.38,68.185V65.07c0-3.567,1.189-5.64,5.331-5.64h4.272c4.146,0,5.331,2.061,5.331,5.64v3.115c0,3.686-1.189,5.719-5.331,5.719h-4.272C175.565,73.924,174.38,71.871,174.38,68.185Zm9.512,2.552c1.546,0,2.005-.4,2.005-2.192V64.761c0-1.748-.436-2.16-2.005-2.16h-4.114c-1.585,0-2.009.4-2.009,2.16v3.785c.028,1.779.472,2.208,2.009,2.208Z" transform="translate(-77.899 -14.44)" fill="#3c1224"/>
    <path id="Path_8" data-name="Path 8" d="M217.089,65.531V54.771h-1.078a.587.587,0,0,1-.646-.646V52.35a.587.587,0,0,1,.646-.646h1.054c0-3.6,1.133-5.069,5.331-5.069h1.958a.583.583,0,0,1,.642.642v1.7a.583.583,0,0,1-.642.642H222.4c-1.672,0-1.93.4-1.93,2.085h3.888a.583.583,0,0,1,.642.646v1.776a.583.583,0,0,1-.642.646h-3.888v10.76a.587.587,0,0,1-.646.666h-2.085a.587.587,0,0,1-.646-.666Z" transform="translate(-102.638 -6.714)" fill="#3c1224"/>
    <path id="Path_9" data-name="Path 9" d="M246.462,78.325V76.447a.583.583,0,0,1,.646-.642h6.512c1.546,0,2.037-.567,2.037-2.192V71.235c-.594,1.157-1.676,1.748-3.733,1.748H249.6c-4.146,0-5.331-2.033-5.331-5.715v-7.2a.583.583,0,0,1,.642-.646h2.112a.587.587,0,0,1,.646.646v7.57c0,1.8.464,2.188,1.982,2.188h3.991c1.363,0,2.009-.333,2.009-2.188v-7.57a.583.583,0,0,1,.642-.646h2.132a.583.583,0,0,1,.642.646V73.252c0,3.527-1.312,5.719-5.434,5.719h-6.531a.587.587,0,0,1-.646-.646Z" transform="translate(-120.09 -14.435)" fill="#3c1224"/>
    <path id="Path_10" data-name="Path 10" d="M287.16,69.8c0-2.937,1.106-4.019,4.609-4.379l5.406-.539a.793.793,0,0,0,.824-.927c0-1.054-.464-1.363-1.8-1.363h-7.237a.583.583,0,0,1-.642-.646V60.071a.583.583,0,0,1,.642-.646h7.316c3.706,0,5.124,1.316,5.124,4.249v9.579a.587.587,0,0,1-.646.666h-2.112a.583.583,0,0,1-.642-.646V72.083c-.67,1.237-1.7,1.855-3.939,1.855h-1.494C289.114,73.918,287.16,72.729,287.16,69.8Zm8.549,1.03c1.7,0,2.291-.567,2.291-2.215V67.383l-5.663.567c-1.367.127-1.752.515-1.752,1.518,0,.927.67,1.367,1.954,1.367Z" transform="translate(-145.981 -14.435)" fill="#3c1224"/>
  </g>
</svg>
